<svg xmlns="http://www.w3.org/2000/svg" viewBox="0 0 375 667">
  <!-- Background -->
  <rect width="100%" height="100%" fill="#f0f0f0" />
  
  <!-- Header Section -->
  <rect x="0" y="0" width="375" height="60" fill="#4CAF50" />
  <text x="20" y="40" font-family="Arial, sans-serif" font-size="22" fill="white">←</text>
  <text x="150" y="40" font-family="Arial, sans-serif" font-size="18" fill="white">Generate Reports</text>
  
  <!-- Report Options -->
  <rect x="20" y="100" width="335" height="40" rx="10" fill="white" />
  <text x="30" y="125" font-family="Arial, sans-serif" font-size="14" fill="#888">Select Report Type</text>
  <text x="330" y="125" font-family="Arial, sans-serif" font-size="14" fill="#888">▼</text>
  
  <rect x="20" y="160" width="335" height="40" rx="10" fill="white" />
  <text x="30" y="185" font-family="Arial, sans-serif" font-size="14" fill="#888">Select Time Period</text>
  <text x="330" y="185" font-family="Arial, sans-serif" font-size="14" fill="#888">▼</text>
  
  <!-- Generate Button -->
  <rect x="20" y="220" width="335" height="40" rx="10" fill="#4CAF50" />
  <text x="187.5" y="245" font-family="Arial, sans-serif" font-size="16" fill="white" text-anchor="middle">Generate Report</text>
  
  <!-- Recent Reports Section -->
  <text x="20" y="300" font-family="Arial, sans-serif" font-size="16" fill="#333" font-weight="bold">Recent Reports</text>
  
  <!-- Recent Report Item 1 -->
  <rect x="20" y="320" width="335" height="60" rx="10" fill="white" />
  <text x="35" y="345" font-family="Arial, sans-serif" font-size="14" fill="#333" font-weight="bold">Dar es Salaam Overview</text>
  <text x="35" y="365" font-family="Arial, sans-serif" font-size="12" fill="#888">Generated on March 18, 2025</text>
  <text x="320" y="350" font-family="Arial, sans-serif" font-size="14" fill="#4CAF50">↓</text>
  
  <!-- Recent Report Item 2 -->
  <rect x="20" y="390" width="335" height="60" rx="10" fill="white" />
  <text x="35" y="415" font-family="Arial, sans-serif" font-size="14" fill="#333" font-weight="bold">Facility Ratings Q1</text>
  <text x="35" y="435" font-family="Arial, sans-serif" font-size="12" fill="#888">Generated on March 15, 2025</text>
  <text x="320" y="420" font-family="Arial, sans-serif" font-size="14" fill="#4CAF50">↓</text>
  
  <!-- Recent Report Item 3 -->
  <rect x="20" y="460" width="335" height="60" rx="10" fill="white" />
  <text x="35" y="485" font-family="Arial, sans-serif" font-size="14" fill="#333" font-weight="bold">Wait Time Analysis</text>
  <text x="35" y="505" font-family="Arial, sans-serif" font-size="12" fill="#888">Generated on March 10, 2025</text>
  <text x="320" y="490" font-family="Arial, sans-serif" font-size="14" fill="#4CAF50">↓</text>
  
  <!-- Footer Navigation -->
  <rect x="0" y="600" width="375" height="67" fill="#4CAF50" />
  <text x="60" y="640" font-family="Arial, sans-serif" font-size="14" fill="white">Home</text>
  <text x="160" y="640" font-family="Arial, sans-serif" font-size="14" fill="white">Reports</text>
  <text x="280" y="640" font-family="Arial, sans-serif" font-size="14" fill="white">Profile</text>
</svg>